<?xml version="1.0" encoding="UTF-8"?>
<svg width="20px" height="20px" viewBox="0 0 20 20" version="1.1" xmlns="http://www.w3.org/2000/svg" xmlns:xlink="http://www.w3.org/1999/xlink">
    <!-- Generator: Sketch 44.1 (41455) - http://www.bohemiancoding.com/sketch -->
    <title>icon</title>
    <desc>Created with Sketch.</desc>
    <defs>
        <polygon id="path-1" points="0 20 20 20 20 0 0 0"></polygon>
    </defs>
    <g id="Page-1" stroke="none" stroke-width="1" fill="none" fill-rule="evenodd">
        <g id="1.应用管理" transform="translate(-925.000000, -509.000000)">
            <g id="dropDown-department" transform="translate(909.000000, 331.000000)">
                <g id="cell-1-copy-4" transform="translate(0.000000, 170.000000)">
                    <g id="icon" transform="translate(16.000000, 8.000000)">
                        <mask id="mask-2" fill="white">
                            <use xlink:href="#path-1"></use>
                        </mask>
                        <g id="boxIcon"></g>
                        <path d="M14.9331309,9.42376857 C14.6011221,9.42376857 14.333115,9.68666927 14.333115,10.0101642 L14.333115,15.8281861 L12.1740577,15.8281861 L12.1740577,11.7224394 C12.1740577,11.3989445 11.9060506,11.1360438 11.5740418,11.1360438 L8.42495821,11.1360438 C8.09394943,11.1360438 7.82494229,11.3989445 7.82494229,11.7224394 L7.82494229,15.8281861 L5.665885,15.8281861 L5.665885,10.0101642 C5.665885,9.68666927 5.39787789,9.42376857 5.06586908,9.42376857 L4.02084135,9.42376857 L10,3.42005473 L15.9781586,9.42376857 L14.9331309,9.42376857 Z M9.02497413,15.8281861 L10.9740258,15.8281861 L10.9740258,12.308835 L9.02497413,12.308835 L9.02497413,15.8281861 Z M17.8302078,9.60164191 L10.4300114,2.17005473 C10.2040054,1.94331509 9.79599459,1.94331509 9.56998859,2.17005473 L2.16979224,9.60164191 C2.00178778,9.76974199 1.9537865,10.0209148 2.04678897,10.2378812 C2.14079147,10.4558249 2.35879725,10.5965598 2.59980365,10.5965598 L4.46585316,10.5965598 L4.46585316,16.4136044 C4.46585316,16.7370993 4.7348603,17 5.06586908,17 L8.42495821,17 L11.5740418,17 L14.9331309,17 C15.2651397,17 15.5331468,16.7370993 15.5331468,16.4136044 L15.5331468,10.5965598 L17.4001964,10.5965598 C17.6412027,10.5965598 17.8592085,10.4558249 17.953211,10.2378812 C18.0462135,10.0209148 17.9982122,9.76974199 17.8302078,9.60164191 L17.8302078,9.60164191 Z" id="Page-1" fill="#808080" mask="url(#mask-2)"></path>
                    </g>
                </g>
            </g>
        </g>
    </g>
</svg>