<?xml version="1.0" encoding="UTF-8"?>
<svg width="20px" height="20px" viewBox="0 0 20 20" version="1.1" xmlns="http://www.w3.org/2000/svg" xmlns:xlink="http://www.w3.org/1999/xlink">
    <!-- Generator: Sketch 44.1 (41455) - http://www.bohemiancoding.com/sketch -->
    <title>icon-wechat</title>
    <desc>Created with Sketch.</desc>
    <defs></defs>
    <g id="视觉稿" stroke="none" stroke-width="1" fill="none" fill-rule="evenodd">
        <g id="成员邀请-二维码" transform="translate(-497.000000, -287.000000)">
            <g id="main-copy-3" transform="translate(465.000000, 171.000000)">
                <g id="qrcode" transform="translate(16.000000, 100.000000)">
                    <g id="Group" transform="translate(16.000000, 16.000000)">
                        <g id="wechat">
                            <g id="icon">
                                <rect id="Rectangle-7" x="0" y="0" width="20" height="20"></rect>
                                <path d="M6.63300238,3.10300005 C1.91067306,3.95392022 0.33656329,9.33645016 4.0928421,11.80014 C4.29880792,11.9337032 4.29880792,11.9189009 3.98983799,12.8489665 L3.72505509,13.645426 L4.67639072,13.130938 L5.62772635,12.6164501 L6.13282391,12.7401308 C6.66238972,12.8736941 7.33914667,12.9676846 7.79026143,12.9676846 L8.06000583,12.9676846 L7.9667975,12.6065248 C7.22634678,9.85590077 9.78609862,7.13000433 13.1157733,7.13000433 L13.5669305,7.13000433 L13.4737646,6.80349741 C12.7430672,4.22600932 9.65862626,2.55882185 6.63300238,3.10300005 Z M6.22107075,5.51227205 C6.72124922,5.85366687 6.75067896,6.59078876 6.27009205,6.9074132 C5.49041581,7.42190118 4.5783057,6.51656319 5.10299482,5.74478844 C5.33347129,5.39851656 5.88763257,5.28471829 6.22107075,5.51227205 Z M10.2421749,5.51227205 C11.0659957,6.07133815 10.4481407,7.36252073 9.5261924,7.00632358 C8.85931604,6.74907959 8.78082259,5.82397664 9.40359673,5.49250709 C9.64878807,5.35894385 10.03129,5.36882633 10.2421749,5.51227205 Z M12.061476,7.55054456 C9.72236244,7.9809245 8.09923136,9.77179272 8.19239728,11.8298302 C8.31499296,14.5854169 11.5171529,16.4851207 14.5917981,15.6342006 L14.954666,15.5352474 L15.7196698,15.950825 C16.1413972,16.1833414 16.4944693,16.3515575 16.5042651,16.3317498 C16.5141033,16.3070222 16.4307332,16.0102055 16.3228524,15.6688534 C16.077661,14.9069612 16.0727419,14.961379 16.4013034,14.7239427 C20.0987227,12.0475015 16.8524606,6.67489681 12.061476,7.55054456 Z M11.9683101,9.77179272 C12.1742335,9.91031859 12.2821143,10.2566333 12.1938674,10.5089574 C12.0075356,11.048173 11.2082254,11.0877457 10.9924214,10.5682951 C10.74723,9.96969904 11.423987,9.41559557 11.9683101,9.77179272 Z M15.244002,9.83117317 C15.5676444,10.142835 15.513704,10.6722109 15.1361212,10.8700744 C14.5574916,11.1668911 13.9494324,10.5732577 14.2485641,10.0043091 C14.4446918,9.63822949 14.9497893,9.54920159 15.244002,9.83117317 Z" id="Shape" fill="#75C940" fill-rule="nonzero"></path>
                            </g>
                        </g>
                    </g>
                </g>
            </g>
        </g>
    </g>
</svg>